{"title":"Source Code [2011] TS Rip XviD D3MT","uid":6292074,"size":833560628,"categoryP":"video","categoryS":"movies","magnet":"?xt=urn:btih:7673c12a0b9c2bb8894da149641d084db972fce6&amp;dn=Source+Code+%5B2011%5D+TS+Rip+XviD+D3MT&amp;tr=udp%3A%2F%2Ftracker.openbittorrent.com%3A80&amp;tr=udp%3A%2F%2Fopen.demonii.com%3A1337&amp;tr=udp%3A%2F%2Ftracker.coppersurfer.tk%3A6969&amp;tr=udp%3A%2F%2Fexodus.desync.com%3A6969","seeders":0,"leechers":0,"uploader":"craig13","files":2,"time":1301855598,"description":"Source Code [2011] TS Rip XviD D3MT\n\n\nAn action thriller centered on a soldier who wakes up in the body of an unknown man and discovers he\\'s part of a mission to find the bomber of a Chicago commuter train.\n &lt;a href=&quot;\nhttp://www.imdb.com/title/tt0945513/&quot; rel=&quot;nofollow&quot; target=&quot;_NEW&quot;&gt;\nhttp://www.imdb.com/title/tt0945513/&lt;/a&gt;\n\nYou are required to register atto download this torrent.\nThe owner of the site would like to assure you that we do not charge to register and you are free to download.\nAny of our torrents providing you keep to the site rules which are to keep a 1:1 ratio.\nWe have some of the latest movies/music/software/games to download at excellent speeds.\nPop into our shoutbox for a chat with OUR friendly and helpful staff. Join our new site with a refreshing attitude towards sharing\n\n\nInfo:\n\nFormat                           : AVI\nFormat/Info                      : Audio Video Interleave\nFile size                        : 762 MiB\nDuration                         : 1h 26mn\nOverall bit rate                 : 1 236 Kbps\nWriting application              : Lavf52.39.1\n\nVideo\nID                               : 0\nFormat                           : xvid\nCodec ID                         : xvid\nDuration                         : 1h 26mn\nBit rate                         : 1 159 Kbps\nWidth                            : 624 pixels\nHeight                           : 272 pixels\nDisplay aspect ratio             : 2.25:1\nFrame rate                       : 25.000 fps\nBits/(Pixel*Frame)               : 0.273\nStream size                      : 714 MiB (94%)\n\nAudio\nID                               : 1\nFormat                           : MPEG Audio\nFormat version                   : Version 1\nFormat profile                   : Layer 3\nMode                             : Joint stereo\nMode extension                   : MS Stereo\nCodec ID                         : 55\nCodec ID/Hint                    : MP3\nDuration                         : 1h 26mn\nBit rate mode                    : Constant\nBit rate                         : 64.0 Kbps\nChannel(s)                       : 2 channels\nSampling rate                    : 44.1 KHz\nCompression mode                 : Lossy\nStream size                      : 39.4 MiB (5%)\nAlignment                        : Aligned on interleaves\nInterleave, duration             : 26 ms (0.65 video frame)\nInterleave, preload duration     : 26 ms","torrent":{"xt":"urn:btih:7673c12a0b9c2bb8894da149641d084db972fce6","amp;dn":"Source+Code+%5B2011%5D+TS+Rip+XviD+D3MT","amp;tr":["udp%3A%2F%2Ftracker.openbittorrent.com%3A80","udp%3A%2F%2Fopen.demonii.com%3A1337","udp%3A%2F%2Ftracker.coppersurfer.tk%3A6969","udp%3A%2F%2Fexodus.desync.com%3A6969"],"infoHash":"7673c12a0b9c2bb8894da149641d084db972fce6","infoHashBuffer":{"type":"Buffer","data":[118,115,193,42,11,156,43,184,137,77,161,73,100,29,8,77,185,114,252,230]},"announce":[],"urlList":[]}}